<svg xmlns="http://www.w3.org/2000/svg" viewBox="0 0 100 100"><path d="M90.221 82.053c-3.293 8.228-11.647 13.351-20.494 12.828-35.732-2.112-63.96-31.905-63.66-68.165.079-9.538 8.145-17.305 17.683-17.262l.122.001c1.248.016 2.46.16 3.626.419a1.646 1.646 0 0 1 1.261 1.241l6.277 28.18a1.203 1.203 0 0 1-.739 1.388c-2.055.799-6.879 2.662-9.294 3.611-.811.319-1.231 1.232-.918 2.046 5.34 13.869 16.437 24.892 30.382 30.116.794.298 1.682-.103 2.007-.887.941-2.275 2.775-6.751 3.715-8.965a1.594 1.594 0 0 1 1.812-.932l27.126 5.916a1.974 1.974 0 0 1 1.489 1.44c.283 1.097.462 2.234.521 3.404.088 1.633.026 3.269-.916 5.621z"/><path d="M66.272 14.941c-10.231 0-18.544 8.325-18.544 18.544 0 10.22 8.313 18.544 18.544 18.544 10.22 0 18.533-8.325 18.533-18.544 0-10.219-8.313-18.544-18.533-18.544zm11.627 20.44h-9.638v9.639h-3.976v-9.639h-9.639v-3.976h9.639v-9.638h3.976v9.638h9.638v3.976z"/><path d="M66.272 10.302c-12.801 0-23.183 10.383-23.183 23.183 0 12.801 10.383 23.183 23.183 23.183s23.172-10.383 23.172-23.183-10.371-23.183-23.172-23.183zm0 44.054c-11.51 0-20.87-9.371-20.87-20.87 0-11.51 9.359-20.87 20.87-20.87 11.499 0 20.858 9.359 20.858 20.87.001 11.499-9.359 20.87-20.858 20.87z"/></svg>