<svg xmlns="http://www.w3.org/2000/svg" fill-rule="evenodd" stroke-linejoin="round" stroke-miterlimit="2" clip-rule="evenodd" viewBox="0 0 128 129"><path fill="none" d="M0 .865h128v128H0z"/><path d="M69.862 61.514c-10.927 7.651-13.587 22.735-5.935 33.663 7.651 10.927 22.735 13.587 33.663 5.936 10.928-7.652 13.587-22.736 5.936-33.663-7.652-10.928-22.736-13.588-33.664-5.936Zm2.868 4.096c8.668-6.07 20.631-3.96 26.7 4.707 6.069 8.667 3.96 20.631-4.708 26.7-8.667 6.069-20.63 3.959-26.7-4.708-6.068-8.667-3.959-20.63 4.708-26.7Z"/><path d="m94.695 101.314 2.562 3.66a2.501 2.501 0 0 0 4.096-2.868l-2.562-3.66a2.501 2.501 0 0 0-4.096 2.868Z"/><path d="M108.507 104.906a8.556 8.556 0 0 0-8.986-3.417 3.701 3.701 0 0 0-2.236 1.565 8.556 8.556 0 0 0 .138 9.613l5.468 7.81a6.766 6.766 0 0 0 11.085-7.761l-5.469-7.81Zm-4.096 2.868a3.556 3.556 0 0 0-3.209-1.504 3.557 3.557 0 0 0 .316 3.53l5.47 7.81a1.765 1.765 0 0 0 2.456.433l.003-.002a1.763 1.763 0 0 0 .433-2.457l-5.469-7.81ZM11.14 33.994c-.027-.606-.257-8.639 6.447-16.565 3.694-4.367 9.737-9.03 20.14-11.514 13.77-3.29 24.993.422 32.3 6.739 12.386 10.707 14.735 29.259.774 42.562-3.824 3.645-8.81 5.763-14.093 7.395-1.763.545-3.556 1.043-5.247 1.699-.956.372-1.967.646-2.599 1.482-.94 1.247-.934 3.16-.786 5.953.324 6.131-4.39 11.372-10.521 11.697-6.132.324-11.372-4.39-11.697-10.522-.457-8.64 1.387-14.496 4.019-18.74 2.983-4.81 7.167-7.878 12.031-9.994 2.61-1.135 5.44-1.97 8.233-2.833 1.913-.591 3.926-.922 5.311-2.243 3.157-3.008 2.825-7.204.025-9.625-2.843-2.458-7.284-2.928-12.698-1.906-6.243 1.178-8.363 4.904-9.145 7.144-2.457 7.037-5.479 10.09-11.208 10.173-6.12.09-11.165-4.79-11.285-10.902Zm17.774-.919c-1.537 4.4-2.98 6.77-6.562 6.822a6.127 6.127 0 0 1-6.213-6.035l-.003-.095s-.262-6.568 5.27-13.108c3.197-3.781 8.477-7.73 17.482-9.881 11.869-2.835 21.572.214 27.87 5.659 10.231 8.844 12.127 24.17.594 35.16-3.275 3.122-7.595 4.84-12.12 6.237-1.876.579-3.782 1.117-5.58 1.815-1.827.709-3.574 1.533-4.78 3.132-1.472 1.95-2.02 4.855-1.789 9.228a6.127 6.127 0 0 1-5.793 6.44 6.127 6.127 0 0 1-6.439-5.793c-.385-7.291 1.054-12.258 3.275-15.84 2.415-3.894 5.84-6.332 9.777-8.045 2.444-1.063 5.099-1.833 7.713-2.64 2.67-.825 5.354-1.56 7.286-3.401 5.584-5.322 4.8-12.744-.155-17.027-3.802-3.286-9.658-4.403-16.896-3.037-8.933 1.686-11.818 7.204-12.937 10.41ZM25.992 98.34v2.05c0 6.14 4.985 11.125 11.125 11.125S48.24 106.53 48.24 100.39v-2.05c0-6.14-4.984-11.124-11.124-11.124-6.14 0-11.125 4.984-11.125 11.124Zm5 0a6.128 6.128 0 0 1 6.125-6.125 6.128 6.128 0 0 1 6.124 6.125v2.05a6.128 6.128 0 0 1-6.124 6.125 6.128 6.128 0 0 1-6.124-6.125v-2.05Z"/></svg>