<svg xmlns="http://www.w3.org/2000/svg" xmlns:xlink="http://www.w3.org/1999/xlink" width="64" height="64"><defs><linearGradient id="b" x1="992.183" x2="1019.298" y1="516.081" y2="545.959" gradientTransform="translate(-1522.705 211.343) scale(1.53785)" gradientUnits="userSpaceOnUse" xlink:href="#a"/><linearGradient id="a"><stop offset="0" stop-color="#ff1679"/><stop offset="1" stop-color="#ff770b"/></linearGradient></defs><g transform="translate(0 -1004.362)"><rect width="48" height="48" y="1004.362" fill="url(#b)" rx="10.144" ry="10.144"/><path style="line-height:normal;-inkscape-font-specification:Sans;text-indent:0;text-align:start;text-decoration-line:none;text-transform:none;block-progression:tb;marker:none" fill="#fff" d="M23.98 1017.862c-6.972 0-11 2.907-11 2.907a.5.5 0 0 0-.125.687l3.344 4.844c-.17.26-.749 1.137-1.406 2.406-.763 1.472-1.531 3.237-1.531 4.656v4a.5.5 0 0 0 .5.5h5.843c1.291.95 2.891 1.5 4.657 1.5a7.82 7.82 0 0 0 4.656-1.5h5.812a.5.5 0 0 0 .5-.5v-4c0-1.42-.797-3.184-1.562-4.656-.63-1.212-1.148-2.03-1.344-2.344l2.813-4.937a.5.5 0 0 0-.157-.656s-4.028-2.907-11-2.907zm0 1c6.232 0 9.555 2.204 10.032 2.532l-2.532 4.468-14.437-.062-3.031-4.437c.548-.373 3.814-2.5 9.968-2.5zm-.718 1.5v1.5h-1.5v1h1.5v1.5h1v-1.5h1.5v-1h-1.5v-1.5h-1zm-5.938 6.5h4.75c-1.176 1.399-2.437 2.488-4.75 2.875v-2.875zm6.156 0h1.469c1.077 2.114 3.602 3.252 6.313 3.875v.375c0 2.444-1.116 4.596-2.875 5.906a.5.5 0 0 0-.032.032c-1.136.834-2.531 1.312-4.093 1.312-1.605 0-3.042-.498-4.188-1.375a.5.5 0 0 0-.125-.094c-1.645-1.32-2.656-3.422-2.656-5.781v-.344c3.106-.466 4.722-2.034 6.187-3.906zm2.719 0h5.063v2.781c-2.184-.545-4.087-1.438-5.063-2.78zm-9.906 1.25v3c0 2.217.818 4.262 2.187 5.75h-4.218v-3.5c0-1.007.7-2.766 1.437-4.187.217-.418.396-.715.594-1.063zm16 .125c.176.313.31.573.5.938.738 1.421 1.437 3.18 1.437 4.187v3.5h-4.156c1.377-1.488 2.188-3.533 2.188-5.75v-.656a.5.5 0 0 0 0-.094l.03-2.125z" color="#000" font-family="Sans" font-weight="400" overflow="visible"/></g></svg>