<svg xmlns="http://www.w3.org/2000/svg" width="64" height="64"><path fill="#656D78" d="M13.501 31.25h-10.5l-2 2h12.5zM22.5 17.25h-7.499l-2 2H22.5zM41.5 17.25H49l2 2h-9.5zM24 9.25h16l2 2H22zM50.5 31.25H61l2 2H50.5z"/><path fill="#48CFAD" d="M22.5 11.25h19v43h-19z"/><path fill="#E6E9ED" d="M41.5 19.25h9v35h-9zM13.501 19.25H22.5v35h-8.999z"/><path fill="#48CFAD" d="M1.501 33.25h12v21h-12zM50.5 33.25h12v21h-12z"/><path fill="#ED5565" d="M36.5 19.25h-3v-3h-3v3h-3v3h3v3h3v-3h3z"/><path fill="#5D9CEC" d="M16.5 23.25h3v3h-3zM16.5 30.25h3v3h-3zM16.5 37.25h3v3h-3zM16.5 44.25h3v3h-3zM44.5 23.25h3v3h-3zM53.5 37.25h3v3h-3zM56.5 37.25h3v3h-3zM53.5 44.25h3v3h-3zM56.5 44.25h3v3h-3zM4.501 44.25h3v3h-3zM7.501 44.25h3v3h-3zM28.5 37.25H32v3h-3.5zM32 37.25h3.5v3H32zM28.5 30.25H32v3h-3.5zM32 30.25h3.5v3H32zM4.501 37.25h3v3h-3zM7.501 37.25h3v3h-3zM44.5 30.25h3v3h-3zM44.5 37.25h3v3h-3zM44.5 44.25h3v3h-3z"/><path fill="#ED5565" d="M28.5 45.25h7v9h-7z"/><path fill="#F5F7FA" d="M19.5 26.75h-3a.5.5 0 0 1-.5-.5v-3a.5.5 0 0 1 .5-.5h3a.5.5 0 0 1 .5.5v3a.5.5 0 0 1-.5.5zm-2.5-1h2v-2h-2v2zm-9.499 15h-3a.5.5 0 0 1-.5-.5v-3a.5.5 0 0 1 .5-.5h3a.5.5 0 0 1 .5.5v3a.5.5 0 0 1-.5.5zm-2.5-1h2v-2h-2v2z"/><path fill="#F5F7FA" d="M10.501 40.75h-3a.5.5 0 0 1-.5-.5v-3a.5.5 0 0 1 .5-.5h3a.5.5 0 0 1 .5.5v3a.5.5 0 0 1-.5.5zm-2.5-1h2v-2h-2v2zm-.5 8h-3a.5.5 0 0 1-.5-.5v-3a.5.5 0 0 1 .5-.5h3a.5.5 0 0 1 .5.5v3a.5.5 0 0 1-.5.5zm-2.5-1h2v-2h-2v2z"/><path fill="#F5F7FA" d="M10.501 47.75h-3a.5.5 0 0 1-.5-.5v-3a.5.5 0 0 1 .5-.5h3a.5.5 0 0 1 .5.5v3a.5.5 0 0 1-.5.5zm-2.5-1h2v-2h-2v2zm11.499-13h-3a.5.5 0 0 1-.5-.5v-3a.5.5 0 0 1 .5-.5h3a.5.5 0 0 1 .5.5v3a.5.5 0 0 1-.5.5zm-2.5-1h2v-2h-2v2zm2.5 8h-3a.5.5 0 0 1-.5-.5v-3a.5.5 0 0 1 .5-.5h3a.5.5 0 0 1 .5.5v3a.5.5 0 0 1-.5.5zm-2.5-1h2v-2h-2v2zm2.5 8h-3a.5.5 0 0 1-.5-.5v-3a.5.5 0 0 1 .5-.5h3a.5.5 0 0 1 .5.5v3a.5.5 0 0 1-.5.5zm-2.5-1h2v-2h-2v2zm30.5-20h-3a.5.5 0 0 1-.5-.5v-3a.5.5 0 0 1 .5-.5h3a.5.5 0 0 1 .5.5v3a.5.5 0 0 1-.5.5zm-2.5-1h2v-2h-2v2zm2.5 8h-3a.5.5 0 0 1-.5-.5v-3a.5.5 0 0 1 .5-.5h3a.5.5 0 0 1 .5.5v3a.5.5 0 0 1-.5.5zm-2.5-1h2v-2h-2v2zm2.5 8h-3a.5.5 0 0 1-.5-.5v-3a.5.5 0 0 1 .5-.5h3a.5.5 0 0 1 .5.5v3a.5.5 0 0 1-.5.5zm-2.5-1h2v-2h-2v2zm2.5 8h-3a.5.5 0 0 1-.5-.5v-3a.5.5 0 0 1 .5-.5h3a.5.5 0 0 1 .5.5v3a.5.5 0 0 1-.5.5zm-2.5-1h2v-2h-2v2z"/><path fill="#DA4453" d="M31.5 45.25h1v9h-1z"/><path fill="#F5F7FA" d="M59.5 40.75h-3a.5.5 0 0 1-.5-.5v-3a.5.5 0 0 1 .5-.5h3a.5.5 0 0 1 .5.5v3a.5.5 0 0 1-.5.5zm-2.5-1h2v-2h-2v2z"/><path fill="#F5F7FA" d="M56.5 40.75h-3a.5.5 0 0 1-.5-.5v-3a.5.5 0 0 1 .5-.5h3a.5.5 0 0 1 .5.5v3a.5.5 0 0 1-.5.5zm-2.5-1h2v-2h-2v2zm-18.5-6H32a.5.5 0 0 1-.5-.5v-3a.5.5 0 0 1 .5-.5h3.5a.5.5 0 0 1 .5.5v3a.5.5 0 0 1-.5.5zm-3-1H35v-2h-2.5v2z"/><path fill="#F5F7FA" d="M32 33.75h-3.5a.5.5 0 0 1-.5-.5v-3a.5.5 0 0 1 .5-.5H32a.5.5 0 0 1 .5.5v3a.5.5 0 0 1-.5.5zm-3-1h2.5v-2H29v2zm6.5 8H32a.5.5 0 0 1-.5-.5v-3a.5.5 0 0 1 .5-.5h3.5a.5.5 0 0 1 .5.5v3a.5.5 0 0 1-.5.5zm-3-1H35v-2h-2.5v2z"/><path fill="#F5F7FA" d="M32 40.75h-3.5a.5.5 0 0 1-.5-.5v-3a.5.5 0 0 1 .5-.5H32a.5.5 0 0 1 .5.5v3a.5.5 0 0 1-.5.5zm-3-1h2.5v-2H29v2zm30.5 8h-3a.5.5 0 0 1-.5-.5v-3a.5.5 0 0 1 .5-.5h3a.5.5 0 0 1 .5.5v3a.5.5 0 0 1-.5.5zm-2.5-1h2v-2h-2v2z"/><path fill="#F5F7FA" d="M56.5 47.75h-3a.5.5 0 0 1-.5-.5v-3a.5.5 0 0 1 .5-.5h3a.5.5 0 0 1 .5.5v3a.5.5 0 0 1-.5.5zm-2.5-1h2v-2h-2v2z"/><path fill="#656D78" d="M63.5 53.75H.5a.5.5 0 0 0 0 1h63a.5.5 0 0 0 0-1z"/></svg>