<svg xmlns="http://www.w3.org/2000/svg" viewBox="0 0 512 512"><path d="M466 512H46a46.06 46.06 0 0 1-46-46V176a16 16 0 0 1 16-16h480a16 16 0 0 1 16 16v290a46.06 46.06 0 0 1-46 46ZM32 192v274a14 14 0 0 0 14 14h420a14 14 0 0 0 14-14V192Z"/><path d="M466 458H46a46.06 46.06 0 0 1-46-46 16 16 0 0 1 32 0 14 14 0 0 0 14 14h420a14 14 0 0 0 14-14 16 16 0 0 1 32 0 46.06 46.06 0 0 1-46 46zM123 140a16 16 0 0 1 0-32 20 20 0 0 0 20-20V52a20 20 0 0 0-40 0v20a16 16 0 0 1-32 0V52a52 52 0 0 1 104 0v36a52.06 52.06 0 0 1-52 52zm266 0a16 16 0 0 1 0-32 20 20 0 0 0 20-20V52a20 20 0 0 0-40 0v20a16 16 0 0 1-32 0V52a52 52 0 0 1 104 0v36a52.06 52.06 0 0 1-52 52z"/><path d="M496 192H16a16 16 0 0 1-16-16v-74a46.06 46.06 0 0 1 46-46h420a46.06 46.06 0 0 1 46 46v74a16 16 0 0 1-16 16ZM32 160h448v-58a14 14 0 0 0-14-14H46a14 14 0 0 0-14 14Z"/><path d="M496 102v74h-97a170.14 170.14 0 0 0 70.9-103.74A30 30 0 0 1 496 102Z" opacity=".2"/><path d="M284 401h-56a16 16 0 0 1-16-16v-32h-32a16 16 0 0 1-16-16v-56a16 16 0 0 1 16-16h32v-32a16 16 0 0 1 16-16h56a16 16 0 0 1 16 16v32h32a16 16 0 0 1 16 16v56a16 16 0 0 1-16 16h-32v32a16 16 0 0 1-16 16Zm-40-32h24v-32a16 16 0 0 1 16-16h32v-24h-32a16 16 0 0 1-16-16v-32h-24v32a16 16 0 0 1-16 16h-32v24h32a16 16 0 0 1 16 16Z"/><path d="M332 281v56h-48v48h-56v-47a60 60 0 0 0 57.92-57zm164-105v236a30 30 0 0 1-30 30H265.35c111.27-35.52 187-144.61 175.52-266z" opacity=".2"/><path d="M496 412v54a30 30 0 0 1-30 30H282.14a203.61 203.61 0 0 0 74.22-54H466a30 30 0 0 0 30-30Z" opacity=".2"/></svg>